<svg width="277" height="124" viewBox="0 0 277 124" fill="none" xmlns="http://www.w3.org/2000/svg">
<path d="M32 45C35.136 46.568 33.9795 61.4244 34 64.4444C34.0825 76.5716 33.5764 87.3183 26.7778 97.7778C25.8049 99.2746 16.7727 111.083 14.4444 106.556C12.827 103.411 13.9171 97.1469 14 93.6667C14.0623 91.0518 19.3193 99.8617 20.4444 101C28.7412 109.393 37.5805 112.947 49.5556 111.556C88.7051 107.008 116.197 50.135 90.6667 18.2222C79.1667 3.84723 60.0387 -1.17663 42.3333 2.94445C22.0485 7.66592 8.78604 28.1651 4.05555 47.2222C-0.0960641 63.9473 0.0683012 88.1839 11.8889 101.889C23.5577 115.418 38.7996 118.629 55.8333 118.944C67.6582 119.163 80.0099 120.144 90.9444 114.833C103.333 108.816 114.31 98.6544 122.833 88C131.211 77.5282 138.036 65.7667 137.722 51.9444C137.43 39.1036 130.11 27.2805 117.222 23.8889C87.5332 16.076 67.5198 56.376 65.4444 79.6667C64.4048 91.3342 65.3261 102.612 75.6667 109.778C83.1249 114.946 92.7486 115.968 101.556 114.556C111.885 112.899 120.156 104.962 128.222 98.7778C132.712 95.3359 136 89.806 136 84C136 76.743 127.56 76.5317 122.056 77.1111C110.365 78.3417 101.303 106.274 116.056 106.944C123.895 107.301 126.713 103.561 128.389 96.1111C128.989 93.4418 130.836 84.2684 127 83.2222C123.609 82.2974 123.59 86.5663 124.222 88.7778C125.681 93.8837 135.999 90.0352 138.333 87.7778C140.748 85.4421 142.705 79.5959 139 77.4445C135.794 75.5831 142.316 79.1002 142.944 79.6111C149.26 84.7423 141.988 97.3914 145.611 103.833C147.604 107.375 155.581 103.712 157.333 101.778C161.546 97.1295 162.196 87.3771 160.389 81.5556C158.919 76.819 155.873 77 162.389 77C166.857 77 167.212 77.3008 166.944 82.1111C166.656 87.2995 164.242 92.7303 165.111 97.9445C166.204 104.503 176.288 103.516 180.556 101.333C186.662 98.2106 190 91.3914 190 84.7778C190 81.9209 189.774 76.8573 185.778 77C178.02 77.2771 174.111 101.165 186 101C194.084 100.888 196.834 93.3235 199.778 87C201.964 82.3046 200.923 82.5385 201 88C201.241 105.1 224.009 104.615 224.833 87.7222C225.453 75.0195 200.202 81.7053 204.222 95.7778C205.533 100.367 214.814 97.6165 217.333 95.8889C218.99 94.7526 222 89.8687 222 94.1111C222 105.584 238.773 104.451 241.833 94.8889C248.26 74.8069 221.799 57.966 204 60.2222C199.781 60.7571 197.039 64.6189 201.444 67.5556C204.834 69.8155 209.213 68.7011 213 69C215.281 69.1801 216.759 70.8697 218.444 72.2222C222.98 75.8625 228.096 78.5196 233.222 81.2222C246.528 88.2368 261.76 93.0518 274.056 101.778C277.306 104.085 272.83 104.595 270.778 105C261.569 106.816 252.067 106.85 242.722 106.944C196.69 107.409 150.645 106.822 104.611 107.056C80.1366 107.179 55.5535 107.126 31.2778 110.667C24.3028 111.684 9.4122 112.538 3.77778 118.389C0.421738 121.874 11.5575 121.872 11.9444 121.889C20.6538 122.263 27.7072 120.99 36 119" stroke="black" stroke-width="3" stroke-linecap="round"/>
</svg>
